# xmcd
#
# Track frame offsets:
#	150
#	12292
#	25490
#	38257
#	55435
#	72140
#	81617
#	96590
#	109722
#	120257
#	134020
#	149440
#
# Disc length: 2174 seconds
#
# Revision: 2
# Processed by: cddbd v1.5.2PL0 Copyright (c) Steve Scherf et al.
# Submitted via: EasyCDDAExtractor 15.3.0.1
#
DISCID=a9087c0c
DTITLE=Alejandro Fernandez - Piel De Niña
DYEAR=1993
DGENRE=Latin
TTITLE0=Piel De Niña
TTITLE1=No Estoy Triste
TTITLE2=Acabe Por Llorar
TTITLE3=Cenizas
TTITLE4=A La Vera Del Camino
TTITLE5=Cascos Ligeros
TTITLE6=Hasta Donde Estes
TTITLE7=Mentira, Mentira
TTITLE8=Cuando Te Olvide
TTITLE9=Quisiera Olvidarme De Ti
TTITLE10=Contigo Aprendi
TTITLE11=Si No Eres Tu
EXTD=
EXTT0=
EXTT1=
EXTT2=
EXTT3=
EXTT4=
EXTT5=
EXTT6=
EXTT7=
EXTT8=
EXTT9=
EXTT10=
EXTT11=
PLAYORDER=
